<mxfile host="app.diagrams.net" modified="2021-03-23T12:08:37.360Z" agent="5.0 (Windows NT 10.0; Win64; x64) AppleWebKit/537.36 (KHTML, like Gecko) Chrome/89.0.4389.90 Safari/537.36" etag="sOlLULDA1c0pVq5WGic6" version="14.4.9" type="github">
  <diagram id="HvKtopgGxEqVqM1ahVo2" name="Page-1">
    <mxGraphModel dx="1098" dy="748" grid="1" gridSize="10" guides="1" tooltips="1" connect="1" arrows="1" fold="1" page="1" pageScale="1" pageWidth="827" pageHeight="1169" math="0" shadow="0">
      <root>
        <mxCell id="0" />
        <mxCell id="1" parent="0" />
        <mxCell id="rIfIayJdJzqMdmbzJrvQ-71" value="" style="edgeStyle=orthogonalEdgeStyle;rounded=0;orthogonalLoop=1;jettySize=auto;html=1;exitX=0;exitY=0.5;exitDx=0;exitDy=0;entryX=1;entryY=0.5;entryDx=0;entryDy=0;" edge="1" parent="1" source="rIfIayJdJzqMdmbzJrvQ-35" target="83PFmtokzqJ9w4UueKZr-229">
          <mxGeometry relative="1" as="geometry">
            <mxPoint x="410" y="310" as="targetPoint" />
          </mxGeometry>
        </mxCell>
        <mxCell id="83PFmtokzqJ9w4UueKZr-178" value="&lt;span style=&quot;color: rgb(85 , 85 , 85) ; font-family: &amp;#34;맑은 고딕&amp;#34; , &amp;#34;seoul&amp;#34; , &amp;#34;arial&amp;#34; , &amp;#34;helvetica&amp;#34; ; font-size: 13.3333px ; font-weight: 400 ; text-align: left ; background-color: rgb(255 , 255 , 255)&quot;&gt;API_BFF_WIRELESS_PRODUCT_001&lt;/span&gt;" style="shape=table;html=1;whiteSpace=wrap;startSize=30;container=1;collapsible=0;childLayout=tableLayout;fixedRows=1;rowLines=0;fontStyle=1;align=center;" parent="1" vertex="1">
          <mxGeometry x="60" y="90" width="300" height="510" as="geometry" />
        </mxCell>
        <mxCell id="83PFmtokzqJ9w4UueKZr-179" value="" style="shape=partialRectangle;html=1;whiteSpace=wrap;collapsible=0;dropTarget=0;pointerEvents=0;fillColor=none;top=0;left=0;bottom=1;right=0;points=[[0,0.5],[1,0.5]];portConstraint=eastwest;" parent="83PFmtokzqJ9w4UueKZr-178" vertex="1">
          <mxGeometry y="30" width="300" height="30" as="geometry" />
        </mxCell>
        <mxCell id="83PFmtokzqJ9w4UueKZr-180" value="2" style="shape=partialRectangle;html=1;whiteSpace=wrap;connectable=0;fillColor=none;top=0;left=0;bottom=0;right=0;overflow=hidden;" parent="83PFmtokzqJ9w4UueKZr-179" vertex="1">
          <mxGeometry width="36" height="30" as="geometry" />
        </mxCell>
        <mxCell id="83PFmtokzqJ9w4UueKZr-181" value="&lt;span style=&quot;color: rgb(85 , 85 , 85) ; font-family: &amp;#34;맑은 고딕&amp;#34; , &amp;#34;seoul&amp;#34; , &amp;#34;arial&amp;#34; , &amp;#34;helvetica&amp;#34; ; font-size: 13.3333px ; background-color: rgb(255 , 255 , 255)&quot;&gt;productGrpNm&lt;/span&gt;" style="shape=partialRectangle;html=1;whiteSpace=wrap;connectable=0;fillColor=none;top=0;left=0;bottom=0;right=0;align=left;spacingLeft=6;overflow=hidden;" parent="83PFmtokzqJ9w4UueKZr-179" vertex="1">
          <mxGeometry x="36" width="124" height="30" as="geometry" />
        </mxCell>
        <mxCell id="83PFmtokzqJ9w4UueKZr-188" value="&lt;span style=&quot;color: rgb(85 , 85 , 85) ; font-family: &amp;#34;맑은 고딕&amp;#34; , &amp;#34;seoul&amp;#34; , &amp;#34;arial&amp;#34; , &amp;#34;helvetica&amp;#34; ; font-size: 13.3333px ; background-color: rgb(255 , 255 , 255)&quot;&gt;모상품그룹명&lt;/span&gt;" style="shape=partialRectangle;html=1;whiteSpace=wrap;connectable=0;fillColor=none;top=0;left=0;bottom=0;right=0;align=left;spacingLeft=6;overflow=hidden;" parent="83PFmtokzqJ9w4UueKZr-179" vertex="1">
          <mxGeometry x="160" width="140" height="30" as="geometry" />
        </mxCell>
        <mxCell id="83PFmtokzqJ9w4UueKZr-182" value="" style="shape=partialRectangle;html=1;whiteSpace=wrap;collapsible=0;dropTarget=0;pointerEvents=0;fillColor=none;top=0;left=0;bottom=0;right=0;points=[[0,0.5],[1,0.5]];portConstraint=eastwest;" parent="83PFmtokzqJ9w4UueKZr-178" vertex="1">
          <mxGeometry y="60" width="300" height="30" as="geometry" />
        </mxCell>
        <mxCell id="83PFmtokzqJ9w4UueKZr-183" value="3" style="shape=partialRectangle;html=1;whiteSpace=wrap;connectable=0;fillColor=none;top=0;left=0;bottom=0;right=0;overflow=hidden;" parent="83PFmtokzqJ9w4UueKZr-182" vertex="1">
          <mxGeometry width="36" height="30" as="geometry" />
        </mxCell>
        <mxCell id="83PFmtokzqJ9w4UueKZr-184" value="&lt;span style=&quot;color: rgb(85 , 85 , 85) ; font-family: &amp;#34;맑은 고딕&amp;#34; , &amp;#34;seoul&amp;#34; , &amp;#34;arial&amp;#34; , &amp;#34;helvetica&amp;#34; ; font-size: 13.3333px ; background-color: rgb(255 , 255 , 255)&quot;&gt;modelNm&lt;/span&gt;" style="shape=partialRectangle;html=1;whiteSpace=wrap;connectable=0;fillColor=none;top=0;left=0;bottom=0;right=0;align=left;spacingLeft=6;overflow=hidden;" parent="83PFmtokzqJ9w4UueKZr-182" vertex="1">
          <mxGeometry x="36" width="124" height="30" as="geometry" />
        </mxCell>
        <mxCell id="83PFmtokzqJ9w4UueKZr-189" value="&lt;span style=&quot;color: rgb(85 , 85 , 85) ; font-family: &amp;#34;맑은 고딕&amp;#34; , &amp;#34;seoul&amp;#34; , &amp;#34;arial&amp;#34; , &amp;#34;helvetica&amp;#34; ; font-size: 13.3333px ; background-color: rgb(255 , 255 , 255)&quot;&gt;모델명&lt;/span&gt;" style="shape=partialRectangle;html=1;whiteSpace=wrap;connectable=0;fillColor=none;top=0;left=0;bottom=0;right=0;align=left;spacingLeft=6;overflow=hidden;" parent="83PFmtokzqJ9w4UueKZr-182" vertex="1">
          <mxGeometry x="160" width="140" height="30" as="geometry" />
        </mxCell>
        <mxCell id="83PFmtokzqJ9w4UueKZr-185" value="" style="shape=partialRectangle;html=1;whiteSpace=wrap;collapsible=0;dropTarget=0;pointerEvents=0;fillColor=none;top=0;left=0;bottom=0;right=0;points=[[0,0.5],[1,0.5]];portConstraint=eastwest;" parent="83PFmtokzqJ9w4UueKZr-178" vertex="1">
          <mxGeometry y="90" width="300" height="30" as="geometry" />
        </mxCell>
        <mxCell id="83PFmtokzqJ9w4UueKZr-186" value="4-1" style="shape=partialRectangle;html=1;whiteSpace=wrap;connectable=0;fillColor=none;top=0;left=0;bottom=0;right=0;overflow=hidden;" parent="83PFmtokzqJ9w4UueKZr-185" vertex="1">
          <mxGeometry width="36" height="30" as="geometry" />
        </mxCell>
        <mxCell id="83PFmtokzqJ9w4UueKZr-187" value="&lt;span style=&quot;color: rgb(85 , 85 , 85) ; font-family: &amp;#34;맑은 고딕&amp;#34; , &amp;#34;seoul&amp;#34; , &amp;#34;arial&amp;#34; , &amp;#34;helvetica&amp;#34; ; font-size: 13.3333px ; background-color: rgb(255 , 255 , 255)&quot;&gt;image1&lt;/span&gt;" style="shape=partialRectangle;html=1;whiteSpace=wrap;connectable=0;fillColor=none;top=0;left=0;bottom=0;right=0;align=left;spacingLeft=6;overflow=hidden;" parent="83PFmtokzqJ9w4UueKZr-185" vertex="1">
          <mxGeometry x="36" width="124" height="30" as="geometry" />
        </mxCell>
        <mxCell id="83PFmtokzqJ9w4UueKZr-190" value="&lt;span style=&quot;color: rgb(85 , 85 , 85) ; font-family: &amp;#34;맑은 고딕&amp;#34; , &amp;#34;seoul&amp;#34; , &amp;#34;arial&amp;#34; , &amp;#34;helvetica&amp;#34; ; font-size: 13.3333px ; background-color: rgb(255 , 255 , 255)&quot;&gt;정면&lt;/span&gt;" style="shape=partialRectangle;html=1;whiteSpace=wrap;connectable=0;fillColor=none;top=0;left=0;bottom=0;right=0;align=left;spacingLeft=6;overflow=hidden;" parent="83PFmtokzqJ9w4UueKZr-185" vertex="1">
          <mxGeometry x="160" width="140" height="30" as="geometry" />
        </mxCell>
        <mxCell id="83PFmtokzqJ9w4UueKZr-199" style="shape=partialRectangle;html=1;whiteSpace=wrap;collapsible=0;dropTarget=0;pointerEvents=0;fillColor=none;top=0;left=0;bottom=0;right=0;points=[[0,0.5],[1,0.5]];portConstraint=eastwest;" parent="83PFmtokzqJ9w4UueKZr-178" vertex="1">
          <mxGeometry y="120" width="300" height="30" as="geometry" />
        </mxCell>
        <mxCell id="83PFmtokzqJ9w4UueKZr-200" value="4-2" style="shape=partialRectangle;html=1;whiteSpace=wrap;connectable=0;fillColor=none;top=0;left=0;bottom=0;right=0;overflow=hidden;" parent="83PFmtokzqJ9w4UueKZr-199" vertex="1">
          <mxGeometry width="36" height="30" as="geometry" />
        </mxCell>
        <mxCell id="83PFmtokzqJ9w4UueKZr-201" value="&lt;span style=&quot;color: rgb(85 , 85 , 85) ; font-family: &amp;#34;맑은 고딕&amp;#34; , &amp;#34;seoul&amp;#34; , &amp;#34;arial&amp;#34; , &amp;#34;helvetica&amp;#34; ; font-size: 13.3333px ; background-color: rgb(255 , 255 , 255)&quot;&gt;image2&lt;/span&gt;" style="shape=partialRectangle;html=1;whiteSpace=wrap;connectable=0;fillColor=none;top=0;left=0;bottom=0;right=0;align=left;spacingLeft=6;overflow=hidden;" parent="83PFmtokzqJ9w4UueKZr-199" vertex="1">
          <mxGeometry x="36" width="124" height="30" as="geometry" />
        </mxCell>
        <mxCell id="83PFmtokzqJ9w4UueKZr-202" value="&lt;span style=&quot;color: rgb(85 , 85 , 85) ; font-family: &amp;#34;맑은 고딕&amp;#34; , &amp;#34;seoul&amp;#34; , &amp;#34;arial&amp;#34; , &amp;#34;helvetica&amp;#34; ; font-size: 13.3333px ; background-color: rgb(255 , 255 , 255)&quot;&gt;측면&lt;/span&gt;" style="shape=partialRectangle;html=1;whiteSpace=wrap;connectable=0;fillColor=none;top=0;left=0;bottom=0;right=0;align=left;spacingLeft=6;overflow=hidden;" parent="83PFmtokzqJ9w4UueKZr-199" vertex="1">
          <mxGeometry x="160" width="140" height="30" as="geometry" />
        </mxCell>
        <mxCell id="83PFmtokzqJ9w4UueKZr-195" style="shape=partialRectangle;html=1;whiteSpace=wrap;collapsible=0;dropTarget=0;pointerEvents=0;fillColor=none;top=0;left=0;bottom=0;right=0;points=[[0,0.5],[1,0.5]];portConstraint=eastwest;" parent="83PFmtokzqJ9w4UueKZr-178" vertex="1">
          <mxGeometry y="150" width="300" height="30" as="geometry" />
        </mxCell>
        <mxCell id="83PFmtokzqJ9w4UueKZr-196" value="4-3" style="shape=partialRectangle;html=1;whiteSpace=wrap;connectable=0;fillColor=none;top=0;left=0;bottom=0;right=0;overflow=hidden;" parent="83PFmtokzqJ9w4UueKZr-195" vertex="1">
          <mxGeometry width="36" height="30" as="geometry" />
        </mxCell>
        <mxCell id="83PFmtokzqJ9w4UueKZr-197" value="&lt;span style=&quot;color: rgb(85 , 85 , 85) ; font-family: &amp;#34;맑은 고딕&amp;#34; , &amp;#34;seoul&amp;#34; , &amp;#34;arial&amp;#34; , &amp;#34;helvetica&amp;#34; ; font-size: 13.3333px ; background-color: rgb(255 , 255 , 255)&quot;&gt;image3&lt;/span&gt;" style="shape=partialRectangle;html=1;whiteSpace=wrap;connectable=0;fillColor=none;top=0;left=0;bottom=0;right=0;align=left;spacingLeft=6;overflow=hidden;" parent="83PFmtokzqJ9w4UueKZr-195" vertex="1">
          <mxGeometry x="36" width="124" height="30" as="geometry" />
        </mxCell>
        <mxCell id="83PFmtokzqJ9w4UueKZr-198" value="&lt;span style=&quot;color: rgb(85 , 85 , 85) ; font-family: &amp;#34;맑은 고딕&amp;#34; , &amp;#34;seoul&amp;#34; , &amp;#34;arial&amp;#34; , &amp;#34;helvetica&amp;#34; ; font-size: 13.3333px ; background-color: rgb(255 , 255 , 255)&quot;&gt;후면&lt;/span&gt;" style="shape=partialRectangle;html=1;whiteSpace=wrap;connectable=0;fillColor=none;top=0;left=0;bottom=0;right=0;align=left;spacingLeft=6;overflow=hidden;" parent="83PFmtokzqJ9w4UueKZr-195" vertex="1">
          <mxGeometry x="160" width="140" height="30" as="geometry" />
        </mxCell>
        <mxCell id="83PFmtokzqJ9w4UueKZr-237" style="shape=partialRectangle;html=1;whiteSpace=wrap;collapsible=0;dropTarget=0;pointerEvents=0;fillColor=none;top=0;left=0;bottom=0;right=0;points=[[0,0.5],[1,0.5]];portConstraint=eastwest;" parent="83PFmtokzqJ9w4UueKZr-178" vertex="1">
          <mxGeometry y="180" width="300" height="30" as="geometry" />
        </mxCell>
        <mxCell id="83PFmtokzqJ9w4UueKZr-238" value="4-3" style="shape=partialRectangle;html=1;whiteSpace=wrap;connectable=0;fillColor=none;top=0;left=0;bottom=0;right=0;overflow=hidden;" parent="83PFmtokzqJ9w4UueKZr-237" vertex="1">
          <mxGeometry width="36" height="30" as="geometry" />
        </mxCell>
        <mxCell id="83PFmtokzqJ9w4UueKZr-239" value="&lt;span style=&quot;color: rgb(85 , 85 , 85) ; font-family: &amp;#34;맑은 고딕&amp;#34; , &amp;#34;seoul&amp;#34; , &amp;#34;arial&amp;#34; , &amp;#34;helvetica&amp;#34; ; font-size: 13.3333px ; background-color: rgb(255 , 255 , 255)&quot;&gt;image4&lt;/span&gt;" style="shape=partialRectangle;html=1;whiteSpace=wrap;connectable=0;fillColor=none;top=0;left=0;bottom=0;right=0;align=left;spacingLeft=6;overflow=hidden;" parent="83PFmtokzqJ9w4UueKZr-237" vertex="1">
          <mxGeometry x="36" width="124" height="30" as="geometry" />
        </mxCell>
        <mxCell id="83PFmtokzqJ9w4UueKZr-240" value="비스듬한 정면" style="shape=partialRectangle;html=1;whiteSpace=wrap;connectable=0;fillColor=none;top=0;left=0;bottom=0;right=0;align=left;spacingLeft=6;overflow=hidden;" parent="83PFmtokzqJ9w4UueKZr-237" vertex="1">
          <mxGeometry x="160" width="140" height="30" as="geometry" />
        </mxCell>
        <mxCell id="83PFmtokzqJ9w4UueKZr-233" style="shape=partialRectangle;html=1;whiteSpace=wrap;collapsible=0;dropTarget=0;pointerEvents=0;fillColor=none;top=0;left=0;bottom=0;right=0;points=[[0,0.5],[1,0.5]];portConstraint=eastwest;" parent="83PFmtokzqJ9w4UueKZr-178" vertex="1">
          <mxGeometry y="210" width="300" height="30" as="geometry" />
        </mxCell>
        <mxCell id="83PFmtokzqJ9w4UueKZr-234" value="6a" style="shape=partialRectangle;html=1;whiteSpace=wrap;connectable=0;fillColor=none;top=0;left=0;bottom=0;right=0;overflow=hidden;" parent="83PFmtokzqJ9w4UueKZr-233" vertex="1">
          <mxGeometry width="36" height="30" as="geometry" />
        </mxCell>
        <mxCell id="83PFmtokzqJ9w4UueKZr-235" value="&lt;span style=&quot;color: rgb(85 , 85 , 85) ; font-family: &amp;#34;맑은 고딕&amp;#34; , &amp;#34;seoul&amp;#34; , &amp;#34;arial&amp;#34; , &amp;#34;helvetica&amp;#34; ; font-size: 13.3333px ; background-color: rgb(255 , 255 , 255)&quot;&gt;colorHex&lt;/span&gt;" style="shape=partialRectangle;html=1;whiteSpace=wrap;connectable=0;fillColor=none;top=0;left=0;bottom=0;right=0;align=left;spacingLeft=6;overflow=hidden;" parent="83PFmtokzqJ9w4UueKZr-233" vertex="1">
          <mxGeometry x="36" width="124" height="30" as="geometry" />
        </mxCell>
        <mxCell id="83PFmtokzqJ9w4UueKZr-236" value="&lt;span style=&quot;color: rgb(85 , 85 , 85) ; font-family: &amp;#34;맑은 고딕&amp;#34; , &amp;#34;seoul&amp;#34; , &amp;#34;arial&amp;#34; , &amp;#34;helvetica&amp;#34; ; font-size: 13.3333px ; background-color: rgb(255 , 255 , 255)&quot;&gt;휴대폰색상헥사&lt;/span&gt;" style="shape=partialRectangle;html=1;whiteSpace=wrap;connectable=0;fillColor=none;top=0;left=0;bottom=0;right=0;align=left;spacingLeft=6;overflow=hidden;" parent="83PFmtokzqJ9w4UueKZr-233" vertex="1">
          <mxGeometry x="160" width="140" height="30" as="geometry" />
        </mxCell>
        <mxCell id="83PFmtokzqJ9w4UueKZr-229" style="shape=partialRectangle;html=1;whiteSpace=wrap;collapsible=0;dropTarget=0;pointerEvents=0;fillColor=none;top=0;left=0;bottom=0;right=0;points=[[0,0.5],[1,0.5]];portConstraint=eastwest;" parent="83PFmtokzqJ9w4UueKZr-178" vertex="1">
          <mxGeometry y="240" width="300" height="30" as="geometry" />
        </mxCell>
        <mxCell id="83PFmtokzqJ9w4UueKZr-230" value="6c" style="shape=partialRectangle;html=1;whiteSpace=wrap;connectable=0;fillColor=none;top=0;left=0;bottom=0;right=0;overflow=hidden;" parent="83PFmtokzqJ9w4UueKZr-229" vertex="1">
          <mxGeometry width="36" height="30" as="geometry" />
        </mxCell>
        <mxCell id="83PFmtokzqJ9w4UueKZr-231" value="&lt;span style=&quot;color: rgb(85 , 85 , 85) ; font-family: &amp;#34;맑은 고딕&amp;#34; , &amp;#34;seoul&amp;#34; , &amp;#34;arial&amp;#34; , &amp;#34;helvetica&amp;#34; ; font-size: 13.3333px ; background-color: rgb(255 , 255 , 255)&quot;&gt;colorName&lt;/span&gt;" style="shape=partialRectangle;html=1;whiteSpace=wrap;connectable=0;fillColor=none;top=0;left=0;bottom=0;right=0;align=left;spacingLeft=6;overflow=hidden;" parent="83PFmtokzqJ9w4UueKZr-229" vertex="1">
          <mxGeometry x="36" width="124" height="30" as="geometry" />
        </mxCell>
        <mxCell id="83PFmtokzqJ9w4UueKZr-232" value="&lt;span style=&quot;color: rgb(85 , 85 , 85) ; font-family: &amp;#34;맑은 고딕&amp;#34; , &amp;#34;seoul&amp;#34; , &amp;#34;arial&amp;#34; , &amp;#34;helvetica&amp;#34; ; font-size: 13.3333px ; background-color: rgb(255 , 255 , 255)&quot;&gt;색상명&lt;/span&gt;" style="shape=partialRectangle;html=1;whiteSpace=wrap;connectable=0;fillColor=none;top=0;left=0;bottom=0;right=0;align=left;spacingLeft=6;overflow=hidden;" parent="83PFmtokzqJ9w4UueKZr-229" vertex="1">
          <mxGeometry x="160" width="140" height="30" as="geometry" />
        </mxCell>
        <mxCell id="83PFmtokzqJ9w4UueKZr-225" style="shape=partialRectangle;html=1;whiteSpace=wrap;collapsible=0;dropTarget=0;pointerEvents=0;fillColor=none;top=0;left=0;bottom=0;right=0;points=[[0,0.5],[1,0.5]];portConstraint=eastwest;" parent="83PFmtokzqJ9w4UueKZr-178" vertex="1">
          <mxGeometry y="270" width="300" height="30" as="geometry" />
        </mxCell>
        <mxCell id="83PFmtokzqJ9w4UueKZr-226" value="8a" style="shape=partialRectangle;html=1;whiteSpace=wrap;connectable=0;fillColor=none;top=0;left=0;bottom=0;right=0;overflow=hidden;" parent="83PFmtokzqJ9w4UueKZr-225" vertex="1">
          <mxGeometry width="36" height="30" as="geometry" />
        </mxCell>
        <mxCell id="83PFmtokzqJ9w4UueKZr-227" value="&lt;span style=&quot;color: rgb(85 , 85 , 85) ; font-family: &amp;#34;맑은 고딕&amp;#34; , &amp;#34;seoul&amp;#34; , &amp;#34;arial&amp;#34; , &amp;#34;helvetica&amp;#34; ; font-size: 13.3333px ; background-color: rgb(255 , 255 , 255)&quot;&gt;phoneCapacity&lt;/span&gt;" style="shape=partialRectangle;html=1;whiteSpace=wrap;connectable=0;fillColor=none;top=0;left=0;bottom=0;right=0;align=left;spacingLeft=6;overflow=hidden;" parent="83PFmtokzqJ9w4UueKZr-225" vertex="1">
          <mxGeometry x="36" width="124" height="30" as="geometry" />
        </mxCell>
        <mxCell id="83PFmtokzqJ9w4UueKZr-228" value="&lt;span style=&quot;color: rgb(85 , 85 , 85) ; font-family: &amp;#34;맑은 고딕&amp;#34; , &amp;#34;seoul&amp;#34; , &amp;#34;arial&amp;#34; , &amp;#34;helvetica&amp;#34; ; font-size: 13.3333px ; background-color: rgb(255 , 255 , 255)&quot;&gt;휴대폰용량&lt;/span&gt;" style="shape=partialRectangle;html=1;whiteSpace=wrap;connectable=0;fillColor=none;top=0;left=0;bottom=0;right=0;align=left;spacingLeft=6;overflow=hidden;" parent="83PFmtokzqJ9w4UueKZr-225" vertex="1">
          <mxGeometry x="160" width="140" height="30" as="geometry" />
        </mxCell>
        <mxCell id="83PFmtokzqJ9w4UueKZr-221" style="shape=partialRectangle;html=1;whiteSpace=wrap;collapsible=0;dropTarget=0;pointerEvents=0;fillColor=none;top=0;left=0;bottom=0;right=0;points=[[0,0.5],[1,0.5]];portConstraint=eastwest;" parent="83PFmtokzqJ9w4UueKZr-178" vertex="1">
          <mxGeometry y="300" width="300" height="30" as="geometry" />
        </mxCell>
        <mxCell id="83PFmtokzqJ9w4UueKZr-222" value="8b" style="shape=partialRectangle;html=1;whiteSpace=wrap;connectable=0;fillColor=none;top=0;left=0;bottom=0;right=0;overflow=hidden;" parent="83PFmtokzqJ9w4UueKZr-221" vertex="1">
          <mxGeometry width="36" height="30" as="geometry" />
        </mxCell>
        <mxCell id="83PFmtokzqJ9w4UueKZr-223" value="&lt;span style=&quot;color: rgb(85 , 85 , 85) ; font-family: &amp;#34;맑은 고딕&amp;#34; , &amp;#34;seoul&amp;#34; , &amp;#34;arial&amp;#34; , &amp;#34;helvetica&amp;#34; ; font-size: 13.3333px ; background-color: rgb(255 , 255 , 255)&quot;&gt;stock&lt;/span&gt;" style="shape=partialRectangle;html=1;whiteSpace=wrap;connectable=0;fillColor=none;top=0;left=0;bottom=0;right=0;align=left;spacingLeft=6;overflow=hidden;" parent="83PFmtokzqJ9w4UueKZr-221" vertex="1">
          <mxGeometry x="36" width="124" height="30" as="geometry" />
        </mxCell>
        <mxCell id="83PFmtokzqJ9w4UueKZr-224" value="&lt;span style=&quot;color: rgb(85 , 85 , 85) ; font-family: &amp;#34;맑은 고딕&amp;#34; , &amp;#34;seoul&amp;#34; , &amp;#34;arial&amp;#34; , &amp;#34;helvetica&amp;#34; ; font-size: 13.3333px ; background-color: rgb(255 , 255 , 255)&quot;&gt;재고&lt;/span&gt;" style="shape=partialRectangle;html=1;whiteSpace=wrap;connectable=0;fillColor=none;top=0;left=0;bottom=0;right=0;align=left;spacingLeft=6;overflow=hidden;" parent="83PFmtokzqJ9w4UueKZr-221" vertex="1">
          <mxGeometry x="160" width="140" height="30" as="geometry" />
        </mxCell>
        <mxCell id="83PFmtokzqJ9w4UueKZr-217" style="shape=partialRectangle;html=1;whiteSpace=wrap;collapsible=0;dropTarget=0;pointerEvents=0;fillColor=none;top=0;left=0;bottom=0;right=0;points=[[0,0.5],[1,0.5]];portConstraint=eastwest;" parent="83PFmtokzqJ9w4UueKZr-178" vertex="1">
          <mxGeometry y="330" width="300" height="30" as="geometry" />
        </mxCell>
        <mxCell id="83PFmtokzqJ9w4UueKZr-218" value="8d" style="shape=partialRectangle;html=1;whiteSpace=wrap;connectable=0;fillColor=none;top=0;left=0;bottom=0;right=0;overflow=hidden;" parent="83PFmtokzqJ9w4UueKZr-217" vertex="1">
          <mxGeometry width="36" height="30" as="geometry" />
        </mxCell>
        <mxCell id="83PFmtokzqJ9w4UueKZr-219" value="&lt;span style=&quot;color: rgb(85 , 85 , 85) ; font-family: &amp;#34;맑은 고딕&amp;#34; , &amp;#34;seoul&amp;#34; , &amp;#34;arial&amp;#34; , &amp;#34;helvetica&amp;#34; ; font-size: 13.3333px ; background-color: rgb(255 , 255 , 255)&quot;&gt;priceNew&lt;/span&gt;" style="shape=partialRectangle;html=1;whiteSpace=wrap;connectable=0;fillColor=none;top=0;left=0;bottom=0;right=0;align=left;spacingLeft=6;overflow=hidden;" parent="83PFmtokzqJ9w4UueKZr-217" vertex="1">
          <mxGeometry x="36" width="124" height="30" as="geometry" />
        </mxCell>
        <mxCell id="83PFmtokzqJ9w4UueKZr-220" value="출고가" style="shape=partialRectangle;html=1;whiteSpace=wrap;connectable=0;fillColor=none;top=0;left=0;bottom=0;right=0;align=left;spacingLeft=6;overflow=hidden;" parent="83PFmtokzqJ9w4UueKZr-217" vertex="1">
          <mxGeometry x="160" width="140" height="30" as="geometry" />
        </mxCell>
        <mxCell id="83PFmtokzqJ9w4UueKZr-213" style="shape=partialRectangle;html=1;whiteSpace=wrap;collapsible=0;dropTarget=0;pointerEvents=0;fillColor=none;top=0;left=0;bottom=0;right=0;points=[[0,0.5],[1,0.5]];portConstraint=eastwest;" parent="83PFmtokzqJ9w4UueKZr-178" vertex="1">
          <mxGeometry y="360" width="300" height="30" as="geometry" />
        </mxCell>
        <mxCell id="83PFmtokzqJ9w4UueKZr-214" value="10" style="shape=partialRectangle;html=1;whiteSpace=wrap;connectable=0;fillColor=none;top=0;left=0;bottom=0;right=0;overflow=hidden;" parent="83PFmtokzqJ9w4UueKZr-213" vertex="1">
          <mxGeometry width="36" height="30" as="geometry" />
        </mxCell>
        <mxCell id="83PFmtokzqJ9w4UueKZr-215" value="&lt;span style=&quot;color: rgb(85 , 85 , 85) ; font-family: &amp;#34;맑은 고딕&amp;#34; , &amp;#34;seoul&amp;#34; , &amp;#34;arial&amp;#34; , &amp;#34;helvetica&amp;#34; ; font-size: 13.3333px ; background-color: rgb(255 , 255 , 255)&quot;&gt;priceNew&lt;/span&gt;" style="shape=partialRectangle;html=1;whiteSpace=wrap;connectable=0;fillColor=none;top=0;left=0;bottom=0;right=0;align=left;spacingLeft=6;overflow=hidden;" parent="83PFmtokzqJ9w4UueKZr-213" vertex="1">
          <mxGeometry x="36" width="124" height="30" as="geometry" />
        </mxCell>
        <mxCell id="83PFmtokzqJ9w4UueKZr-216" value="출고가" style="shape=partialRectangle;html=1;whiteSpace=wrap;connectable=0;fillColor=none;top=0;left=0;bottom=0;right=0;align=left;spacingLeft=6;overflow=hidden;" parent="83PFmtokzqJ9w4UueKZr-213" vertex="1">
          <mxGeometry x="160" width="140" height="30" as="geometry" />
        </mxCell>
        <mxCell id="83PFmtokzqJ9w4UueKZr-209" style="shape=partialRectangle;html=1;whiteSpace=wrap;collapsible=0;dropTarget=0;pointerEvents=0;fillColor=none;top=0;left=0;bottom=0;right=0;points=[[0,0.5],[1,0.5]];portConstraint=eastwest;" parent="83PFmtokzqJ9w4UueKZr-178" vertex="1">
          <mxGeometry y="390" width="300" height="30" as="geometry" />
        </mxCell>
        <mxCell id="83PFmtokzqJ9w4UueKZr-210" style="shape=partialRectangle;html=1;whiteSpace=wrap;connectable=0;fillColor=none;top=0;left=0;bottom=0;right=0;overflow=hidden;" parent="83PFmtokzqJ9w4UueKZr-209" vertex="1">
          <mxGeometry width="36" height="30" as="geometry" />
        </mxCell>
        <mxCell id="83PFmtokzqJ9w4UueKZr-211" style="shape=partialRectangle;html=1;whiteSpace=wrap;connectable=0;fillColor=none;top=0;left=0;bottom=0;right=0;align=left;spacingLeft=6;overflow=hidden;" parent="83PFmtokzqJ9w4UueKZr-209" vertex="1">
          <mxGeometry x="36" width="124" height="30" as="geometry" />
        </mxCell>
        <mxCell id="83PFmtokzqJ9w4UueKZr-212" style="shape=partialRectangle;html=1;whiteSpace=wrap;connectable=0;fillColor=none;top=0;left=0;bottom=0;right=0;align=left;spacingLeft=6;overflow=hidden;" parent="83PFmtokzqJ9w4UueKZr-209" vertex="1">
          <mxGeometry x="160" width="140" height="30" as="geometry" />
        </mxCell>
        <mxCell id="83PFmtokzqJ9w4UueKZr-205" style="shape=partialRectangle;html=1;whiteSpace=wrap;collapsible=0;dropTarget=0;pointerEvents=0;fillColor=none;top=0;left=0;bottom=0;right=0;points=[[0,0.5],[1,0.5]];portConstraint=eastwest;" parent="83PFmtokzqJ9w4UueKZr-178" vertex="1">
          <mxGeometry y="420" width="300" height="30" as="geometry" />
        </mxCell>
        <mxCell id="83PFmtokzqJ9w4UueKZr-206" style="shape=partialRectangle;html=1;whiteSpace=wrap;connectable=0;fillColor=none;top=0;left=0;bottom=0;right=0;overflow=hidden;" parent="83PFmtokzqJ9w4UueKZr-205" vertex="1">
          <mxGeometry width="36" height="30" as="geometry" />
        </mxCell>
        <mxCell id="83PFmtokzqJ9w4UueKZr-207" style="shape=partialRectangle;html=1;whiteSpace=wrap;connectable=0;fillColor=none;top=0;left=0;bottom=0;right=0;align=left;spacingLeft=6;overflow=hidden;" parent="83PFmtokzqJ9w4UueKZr-205" vertex="1">
          <mxGeometry x="36" width="124" height="30" as="geometry" />
        </mxCell>
        <mxCell id="83PFmtokzqJ9w4UueKZr-208" style="shape=partialRectangle;html=1;whiteSpace=wrap;connectable=0;fillColor=none;top=0;left=0;bottom=0;right=0;align=left;spacingLeft=6;overflow=hidden;" parent="83PFmtokzqJ9w4UueKZr-205" vertex="1">
          <mxGeometry x="160" width="140" height="30" as="geometry" />
        </mxCell>
        <mxCell id="83PFmtokzqJ9w4UueKZr-245" style="shape=partialRectangle;html=1;whiteSpace=wrap;collapsible=0;dropTarget=0;pointerEvents=0;fillColor=none;top=0;left=0;bottom=0;right=0;points=[[0,0.5],[1,0.5]];portConstraint=eastwest;" parent="83PFmtokzqJ9w4UueKZr-178" vertex="1">
          <mxGeometry y="450" width="300" height="30" as="geometry" />
        </mxCell>
        <mxCell id="83PFmtokzqJ9w4UueKZr-246" style="shape=partialRectangle;html=1;whiteSpace=wrap;connectable=0;fillColor=none;top=0;left=0;bottom=0;right=0;overflow=hidden;" parent="83PFmtokzqJ9w4UueKZr-245" vertex="1">
          <mxGeometry width="36" height="30" as="geometry" />
        </mxCell>
        <mxCell id="83PFmtokzqJ9w4UueKZr-247" style="shape=partialRectangle;html=1;whiteSpace=wrap;connectable=0;fillColor=none;top=0;left=0;bottom=0;right=0;align=left;spacingLeft=6;overflow=hidden;" parent="83PFmtokzqJ9w4UueKZr-245" vertex="1">
          <mxGeometry x="36" width="124" height="30" as="geometry" />
        </mxCell>
        <mxCell id="83PFmtokzqJ9w4UueKZr-248" style="shape=partialRectangle;html=1;whiteSpace=wrap;connectable=0;fillColor=none;top=0;left=0;bottom=0;right=0;align=left;spacingLeft=6;overflow=hidden;" parent="83PFmtokzqJ9w4UueKZr-245" vertex="1">
          <mxGeometry x="160" width="140" height="30" as="geometry" />
        </mxCell>
        <mxCell id="83PFmtokzqJ9w4UueKZr-241" style="shape=partialRectangle;html=1;whiteSpace=wrap;collapsible=0;dropTarget=0;pointerEvents=0;fillColor=none;top=0;left=0;bottom=0;right=0;points=[[0,0.5],[1,0.5]];portConstraint=eastwest;" parent="83PFmtokzqJ9w4UueKZr-178" vertex="1">
          <mxGeometry y="480" width="300" height="30" as="geometry" />
        </mxCell>
        <mxCell id="83PFmtokzqJ9w4UueKZr-242" style="shape=partialRectangle;html=1;whiteSpace=wrap;connectable=0;fillColor=none;top=0;left=0;bottom=0;right=0;overflow=hidden;" parent="83PFmtokzqJ9w4UueKZr-241" vertex="1">
          <mxGeometry width="36" height="30" as="geometry" />
        </mxCell>
        <mxCell id="83PFmtokzqJ9w4UueKZr-243" style="shape=partialRectangle;html=1;whiteSpace=wrap;connectable=0;fillColor=none;top=0;left=0;bottom=0;right=0;align=left;spacingLeft=6;overflow=hidden;" parent="83PFmtokzqJ9w4UueKZr-241" vertex="1">
          <mxGeometry x="36" width="124" height="30" as="geometry" />
        </mxCell>
        <mxCell id="83PFmtokzqJ9w4UueKZr-244" style="shape=partialRectangle;html=1;whiteSpace=wrap;connectable=0;fillColor=none;top=0;left=0;bottom=0;right=0;align=left;spacingLeft=6;overflow=hidden;" parent="83PFmtokzqJ9w4UueKZr-241" vertex="1">
          <mxGeometry x="160" width="140" height="30" as="geometry" />
        </mxCell>
        <mxCell id="rIfIayJdJzqMdmbzJrvQ-5" value="ms_order_step1" style="text;strokeColor=none;fillColor=none;html=1;fontSize=24;fontStyle=1;verticalAlign=middle;align=center;" vertex="1" parent="1">
          <mxGeometry x="95" y="40" width="230" height="40" as="geometry" />
        </mxCell>
        <mxCell id="rIfIayJdJzqMdmbzJrvQ-6" value="&lt;span style=&quot;color: rgb(85 , 85 , 85) ; font-family: &amp;#34;맑은 고딕&amp;#34; , &amp;#34;seoul&amp;#34; , &amp;#34;arial&amp;#34; , &amp;#34;helvetica&amp;#34; ; font-size: 13.3333px ; font-weight: 400 ; text-align: left ; background-color: rgb(255 , 255 , 255)&quot;&gt;API_BFF_WIRELESS_PRODUCT_003&lt;/span&gt;" style="shape=table;html=1;whiteSpace=wrap;startSize=30;container=1;collapsible=0;childLayout=tableLayout;fixedRows=1;rowLines=0;fontStyle=1;align=center;" vertex="1" parent="1">
          <mxGeometry x="440" y="90" width="300" height="390" as="geometry" />
        </mxCell>
        <mxCell id="rIfIayJdJzqMdmbzJrvQ-7" value="" style="shape=partialRectangle;html=1;whiteSpace=wrap;collapsible=0;dropTarget=0;pointerEvents=0;fillColor=none;top=0;left=0;bottom=1;right=0;points=[[0,0.5],[1,0.5]];portConstraint=eastwest;" vertex="1" parent="rIfIayJdJzqMdmbzJrvQ-6">
          <mxGeometry y="30" width="300" height="30" as="geometry" />
        </mxCell>
        <mxCell id="rIfIayJdJzqMdmbzJrvQ-8" value="11" style="shape=partialRectangle;html=1;whiteSpace=wrap;connectable=0;fillColor=none;top=0;left=0;bottom=0;right=0;overflow=hidden;" vertex="1" parent="rIfIayJdJzqMdmbzJrvQ-7">
          <mxGeometry width="36" height="30" as="geometry" />
        </mxCell>
        <mxCell id="rIfIayJdJzqMdmbzJrvQ-9" value="&lt;span style=&quot;color: rgb(85 , 85 , 85) ; font-family: &amp;#34;맑은 고딕&amp;#34; , &amp;#34;seoul&amp;#34; , &amp;#34;arial&amp;#34; , &amp;#34;helvetica&amp;#34; ; font-size: 13.3333px ; background-color: rgb(255 , 255 , 255)&quot;&gt;qckPsblAreaYn&lt;/span&gt;" style="shape=partialRectangle;html=1;whiteSpace=wrap;connectable=0;fillColor=none;top=0;left=0;bottom=0;right=0;align=left;spacingLeft=6;overflow=hidden;" vertex="1" parent="rIfIayJdJzqMdmbzJrvQ-7">
          <mxGeometry x="36" width="124" height="30" as="geometry" />
        </mxCell>
        <mxCell id="rIfIayJdJzqMdmbzJrvQ-10" value="&lt;span style=&quot;color: rgb(85 , 85 , 85) ; font-family: &amp;#34;맑은 고딕&amp;#34; , &amp;#34;seoul&amp;#34; , &amp;#34;arial&amp;#34; , &amp;#34;helvetica&amp;#34; ; font-size: 13.3333px ; background-color: rgb(255 , 255 , 255)&quot;&gt;바로도착 가능 여부&lt;/span&gt;" style="shape=partialRectangle;html=1;whiteSpace=wrap;connectable=0;fillColor=none;top=0;left=0;bottom=0;right=0;align=left;spacingLeft=6;overflow=hidden;" vertex="1" parent="rIfIayJdJzqMdmbzJrvQ-7">
          <mxGeometry x="160" width="140" height="30" as="geometry" />
        </mxCell>
        <mxCell id="rIfIayJdJzqMdmbzJrvQ-11" value="" style="shape=partialRectangle;html=1;whiteSpace=wrap;collapsible=0;dropTarget=0;pointerEvents=0;fillColor=none;top=0;left=0;bottom=0;right=0;points=[[0,0.5],[1,0.5]];portConstraint=eastwest;" vertex="1" parent="rIfIayJdJzqMdmbzJrvQ-6">
          <mxGeometry y="60" width="300" height="30" as="geometry" />
        </mxCell>
        <mxCell id="rIfIayJdJzqMdmbzJrvQ-12" value="" style="shape=partialRectangle;html=1;whiteSpace=wrap;connectable=0;fillColor=none;top=0;left=0;bottom=0;right=0;overflow=hidden;" vertex="1" parent="rIfIayJdJzqMdmbzJrvQ-11">
          <mxGeometry width="36" height="30" as="geometry" />
        </mxCell>
        <mxCell id="rIfIayJdJzqMdmbzJrvQ-13" value="" style="shape=partialRectangle;html=1;whiteSpace=wrap;connectable=0;fillColor=none;top=0;left=0;bottom=0;right=0;align=left;spacingLeft=6;overflow=hidden;" vertex="1" parent="rIfIayJdJzqMdmbzJrvQ-11">
          <mxGeometry x="36" width="124" height="30" as="geometry" />
        </mxCell>
        <mxCell id="rIfIayJdJzqMdmbzJrvQ-14" value="" style="shape=partialRectangle;html=1;whiteSpace=wrap;connectable=0;fillColor=none;top=0;left=0;bottom=0;right=0;align=left;spacingLeft=6;overflow=hidden;" vertex="1" parent="rIfIayJdJzqMdmbzJrvQ-11">
          <mxGeometry x="160" width="140" height="30" as="geometry" />
        </mxCell>
        <mxCell id="rIfIayJdJzqMdmbzJrvQ-15" value="" style="shape=partialRectangle;html=1;whiteSpace=wrap;collapsible=0;dropTarget=0;pointerEvents=0;fillColor=none;top=0;left=0;bottom=0;right=0;points=[[0,0.5],[1,0.5]];portConstraint=eastwest;" vertex="1" parent="rIfIayJdJzqMdmbzJrvQ-6">
          <mxGeometry y="90" width="300" height="30" as="geometry" />
        </mxCell>
        <mxCell id="rIfIayJdJzqMdmbzJrvQ-16" value="" style="shape=partialRectangle;html=1;whiteSpace=wrap;connectable=0;fillColor=none;top=0;left=0;bottom=0;right=0;overflow=hidden;" vertex="1" parent="rIfIayJdJzqMdmbzJrvQ-15">
          <mxGeometry width="36" height="30" as="geometry" />
        </mxCell>
        <mxCell id="rIfIayJdJzqMdmbzJrvQ-17" value="" style="shape=partialRectangle;html=1;whiteSpace=wrap;connectable=0;fillColor=none;top=0;left=0;bottom=0;right=0;align=left;spacingLeft=6;overflow=hidden;" vertex="1" parent="rIfIayJdJzqMdmbzJrvQ-15">
          <mxGeometry x="36" width="124" height="30" as="geometry" />
        </mxCell>
        <mxCell id="rIfIayJdJzqMdmbzJrvQ-18" value="" style="shape=partialRectangle;html=1;whiteSpace=wrap;connectable=0;fillColor=none;top=0;left=0;bottom=0;right=0;align=left;spacingLeft=6;overflow=hidden;" vertex="1" parent="rIfIayJdJzqMdmbzJrvQ-15">
          <mxGeometry x="160" width="140" height="30" as="geometry" />
        </mxCell>
        <mxCell id="rIfIayJdJzqMdmbzJrvQ-19" style="shape=partialRectangle;html=1;whiteSpace=wrap;collapsible=0;dropTarget=0;pointerEvents=0;fillColor=none;top=0;left=0;bottom=0;right=0;points=[[0,0.5],[1,0.5]];portConstraint=eastwest;" vertex="1" parent="rIfIayJdJzqMdmbzJrvQ-6">
          <mxGeometry y="120" width="300" height="30" as="geometry" />
        </mxCell>
        <mxCell id="rIfIayJdJzqMdmbzJrvQ-20" value="" style="shape=partialRectangle;html=1;whiteSpace=wrap;connectable=0;fillColor=none;top=0;left=0;bottom=0;right=0;overflow=hidden;" vertex="1" parent="rIfIayJdJzqMdmbzJrvQ-19">
          <mxGeometry width="36" height="30" as="geometry" />
        </mxCell>
        <mxCell id="rIfIayJdJzqMdmbzJrvQ-21" value="" style="shape=partialRectangle;html=1;whiteSpace=wrap;connectable=0;fillColor=none;top=0;left=0;bottom=0;right=0;align=left;spacingLeft=6;overflow=hidden;" vertex="1" parent="rIfIayJdJzqMdmbzJrvQ-19">
          <mxGeometry x="36" width="124" height="30" as="geometry" />
        </mxCell>
        <mxCell id="rIfIayJdJzqMdmbzJrvQ-22" value="" style="shape=partialRectangle;html=1;whiteSpace=wrap;connectable=0;fillColor=none;top=0;left=0;bottom=0;right=0;align=left;spacingLeft=6;overflow=hidden;" vertex="1" parent="rIfIayJdJzqMdmbzJrvQ-19">
          <mxGeometry x="160" width="140" height="30" as="geometry" />
        </mxCell>
        <mxCell id="rIfIayJdJzqMdmbzJrvQ-23" style="shape=partialRectangle;html=1;whiteSpace=wrap;collapsible=0;dropTarget=0;pointerEvents=0;fillColor=none;top=0;left=0;bottom=0;right=0;points=[[0,0.5],[1,0.5]];portConstraint=eastwest;" vertex="1" parent="rIfIayJdJzqMdmbzJrvQ-6">
          <mxGeometry y="150" width="300" height="30" as="geometry" />
        </mxCell>
        <mxCell id="rIfIayJdJzqMdmbzJrvQ-24" value="" style="shape=partialRectangle;html=1;whiteSpace=wrap;connectable=0;fillColor=none;top=0;left=0;bottom=0;right=0;overflow=hidden;" vertex="1" parent="rIfIayJdJzqMdmbzJrvQ-23">
          <mxGeometry width="36" height="30" as="geometry" />
        </mxCell>
        <mxCell id="rIfIayJdJzqMdmbzJrvQ-25" value="" style="shape=partialRectangle;html=1;whiteSpace=wrap;connectable=0;fillColor=none;top=0;left=0;bottom=0;right=0;align=left;spacingLeft=6;overflow=hidden;" vertex="1" parent="rIfIayJdJzqMdmbzJrvQ-23">
          <mxGeometry x="36" width="124" height="30" as="geometry" />
        </mxCell>
        <mxCell id="rIfIayJdJzqMdmbzJrvQ-26" value="" style="shape=partialRectangle;html=1;whiteSpace=wrap;connectable=0;fillColor=none;top=0;left=0;bottom=0;right=0;align=left;spacingLeft=6;overflow=hidden;" vertex="1" parent="rIfIayJdJzqMdmbzJrvQ-23">
          <mxGeometry x="160" width="140" height="30" as="geometry" />
        </mxCell>
        <mxCell id="rIfIayJdJzqMdmbzJrvQ-27" style="shape=partialRectangle;html=1;whiteSpace=wrap;collapsible=0;dropTarget=0;pointerEvents=0;fillColor=none;top=0;left=0;bottom=0;right=0;points=[[0,0.5],[1,0.5]];portConstraint=eastwest;" vertex="1" parent="rIfIayJdJzqMdmbzJrvQ-6">
          <mxGeometry y="180" width="300" height="30" as="geometry" />
        </mxCell>
        <mxCell id="rIfIayJdJzqMdmbzJrvQ-28" value="" style="shape=partialRectangle;html=1;whiteSpace=wrap;connectable=0;fillColor=none;top=0;left=0;bottom=0;right=0;overflow=hidden;" vertex="1" parent="rIfIayJdJzqMdmbzJrvQ-27">
          <mxGeometry width="36" height="30" as="geometry" />
        </mxCell>
        <mxCell id="rIfIayJdJzqMdmbzJrvQ-29" value="" style="shape=partialRectangle;html=1;whiteSpace=wrap;connectable=0;fillColor=none;top=0;left=0;bottom=0;right=0;align=left;spacingLeft=6;overflow=hidden;" vertex="1" parent="rIfIayJdJzqMdmbzJrvQ-27">
          <mxGeometry x="36" width="124" height="30" as="geometry" />
        </mxCell>
        <mxCell id="rIfIayJdJzqMdmbzJrvQ-30" value="" style="shape=partialRectangle;html=1;whiteSpace=wrap;connectable=0;fillColor=none;top=0;left=0;bottom=0;right=0;align=left;spacingLeft=6;overflow=hidden;" vertex="1" parent="rIfIayJdJzqMdmbzJrvQ-27">
          <mxGeometry x="160" width="140" height="30" as="geometry" />
        </mxCell>
        <mxCell id="rIfIayJdJzqMdmbzJrvQ-31" style="shape=partialRectangle;html=1;whiteSpace=wrap;collapsible=0;dropTarget=0;pointerEvents=0;fillColor=none;top=0;left=0;bottom=0;right=0;points=[[0,0.5],[1,0.5]];portConstraint=eastwest;" vertex="1" parent="rIfIayJdJzqMdmbzJrvQ-6">
          <mxGeometry y="210" width="300" height="30" as="geometry" />
        </mxCell>
        <mxCell id="rIfIayJdJzqMdmbzJrvQ-32" value="" style="shape=partialRectangle;html=1;whiteSpace=wrap;connectable=0;fillColor=none;top=0;left=0;bottom=0;right=0;overflow=hidden;" vertex="1" parent="rIfIayJdJzqMdmbzJrvQ-31">
          <mxGeometry width="36" height="30" as="geometry" />
        </mxCell>
        <mxCell id="rIfIayJdJzqMdmbzJrvQ-33" value="" style="shape=partialRectangle;html=1;whiteSpace=wrap;connectable=0;fillColor=none;top=0;left=0;bottom=0;right=0;align=left;spacingLeft=6;overflow=hidden;" vertex="1" parent="rIfIayJdJzqMdmbzJrvQ-31">
          <mxGeometry x="36" width="124" height="30" as="geometry" />
        </mxCell>
        <mxCell id="rIfIayJdJzqMdmbzJrvQ-34" value="" style="shape=partialRectangle;html=1;whiteSpace=wrap;connectable=0;fillColor=none;top=0;left=0;bottom=0;right=0;align=left;spacingLeft=6;overflow=hidden;" vertex="1" parent="rIfIayJdJzqMdmbzJrvQ-31">
          <mxGeometry x="160" width="140" height="30" as="geometry" />
        </mxCell>
        <mxCell id="rIfIayJdJzqMdmbzJrvQ-35" style="shape=partialRectangle;html=1;whiteSpace=wrap;collapsible=0;dropTarget=0;pointerEvents=0;fillColor=none;top=0;left=0;bottom=0;right=0;points=[[0,0.5],[1,0.5]];portConstraint=eastwest;" vertex="1" parent="rIfIayJdJzqMdmbzJrvQ-6">
          <mxGeometry y="240" width="300" height="30" as="geometry" />
        </mxCell>
        <mxCell id="rIfIayJdJzqMdmbzJrvQ-36" value="" style="shape=partialRectangle;html=1;whiteSpace=wrap;connectable=0;fillColor=none;top=0;left=0;bottom=0;right=0;overflow=hidden;" vertex="1" parent="rIfIayJdJzqMdmbzJrvQ-35">
          <mxGeometry width="36" height="30" as="geometry" />
        </mxCell>
        <mxCell id="rIfIayJdJzqMdmbzJrvQ-37" value="" style="shape=partialRectangle;html=1;whiteSpace=wrap;connectable=0;fillColor=none;top=0;left=0;bottom=0;right=0;align=left;spacingLeft=6;overflow=hidden;" vertex="1" parent="rIfIayJdJzqMdmbzJrvQ-35">
          <mxGeometry x="36" width="124" height="30" as="geometry" />
        </mxCell>
        <mxCell id="rIfIayJdJzqMdmbzJrvQ-38" value="" style="shape=partialRectangle;html=1;whiteSpace=wrap;connectable=0;fillColor=none;top=0;left=0;bottom=0;right=0;align=left;spacingLeft=6;overflow=hidden;" vertex="1" parent="rIfIayJdJzqMdmbzJrvQ-35">
          <mxGeometry x="160" width="140" height="30" as="geometry" />
        </mxCell>
        <mxCell id="rIfIayJdJzqMdmbzJrvQ-39" style="shape=partialRectangle;html=1;whiteSpace=wrap;collapsible=0;dropTarget=0;pointerEvents=0;fillColor=none;top=0;left=0;bottom=0;right=0;points=[[0,0.5],[1,0.5]];portConstraint=eastwest;" vertex="1" parent="rIfIayJdJzqMdmbzJrvQ-6">
          <mxGeometry y="270" width="300" height="30" as="geometry" />
        </mxCell>
        <mxCell id="rIfIayJdJzqMdmbzJrvQ-40" value="" style="shape=partialRectangle;html=1;whiteSpace=wrap;connectable=0;fillColor=none;top=0;left=0;bottom=0;right=0;overflow=hidden;" vertex="1" parent="rIfIayJdJzqMdmbzJrvQ-39">
          <mxGeometry width="36" height="30" as="geometry" />
        </mxCell>
        <mxCell id="rIfIayJdJzqMdmbzJrvQ-41" value="" style="shape=partialRectangle;html=1;whiteSpace=wrap;connectable=0;fillColor=none;top=0;left=0;bottom=0;right=0;align=left;spacingLeft=6;overflow=hidden;" vertex="1" parent="rIfIayJdJzqMdmbzJrvQ-39">
          <mxGeometry x="36" width="124" height="30" as="geometry" />
        </mxCell>
        <mxCell id="rIfIayJdJzqMdmbzJrvQ-42" value="" style="shape=partialRectangle;html=1;whiteSpace=wrap;connectable=0;fillColor=none;top=0;left=0;bottom=0;right=0;align=left;spacingLeft=6;overflow=hidden;" vertex="1" parent="rIfIayJdJzqMdmbzJrvQ-39">
          <mxGeometry x="160" width="140" height="30" as="geometry" />
        </mxCell>
        <mxCell id="rIfIayJdJzqMdmbzJrvQ-43" style="shape=partialRectangle;html=1;whiteSpace=wrap;collapsible=0;dropTarget=0;pointerEvents=0;fillColor=none;top=0;left=0;bottom=0;right=0;points=[[0,0.5],[1,0.5]];portConstraint=eastwest;" vertex="1" parent="rIfIayJdJzqMdmbzJrvQ-6">
          <mxGeometry y="300" width="300" height="30" as="geometry" />
        </mxCell>
        <mxCell id="rIfIayJdJzqMdmbzJrvQ-44" value="" style="shape=partialRectangle;html=1;whiteSpace=wrap;connectable=0;fillColor=none;top=0;left=0;bottom=0;right=0;overflow=hidden;" vertex="1" parent="rIfIayJdJzqMdmbzJrvQ-43">
          <mxGeometry width="36" height="30" as="geometry" />
        </mxCell>
        <mxCell id="rIfIayJdJzqMdmbzJrvQ-45" value="" style="shape=partialRectangle;html=1;whiteSpace=wrap;connectable=0;fillColor=none;top=0;left=0;bottom=0;right=0;align=left;spacingLeft=6;overflow=hidden;" vertex="1" parent="rIfIayJdJzqMdmbzJrvQ-43">
          <mxGeometry x="36" width="124" height="30" as="geometry" />
        </mxCell>
        <mxCell id="rIfIayJdJzqMdmbzJrvQ-46" value="" style="shape=partialRectangle;html=1;whiteSpace=wrap;connectable=0;fillColor=none;top=0;left=0;bottom=0;right=0;align=left;spacingLeft=6;overflow=hidden;" vertex="1" parent="rIfIayJdJzqMdmbzJrvQ-43">
          <mxGeometry x="160" width="140" height="30" as="geometry" />
        </mxCell>
        <mxCell id="rIfIayJdJzqMdmbzJrvQ-47" style="shape=partialRectangle;html=1;whiteSpace=wrap;collapsible=0;dropTarget=0;pointerEvents=0;fillColor=none;top=0;left=0;bottom=0;right=0;points=[[0,0.5],[1,0.5]];portConstraint=eastwest;" vertex="1" parent="rIfIayJdJzqMdmbzJrvQ-6">
          <mxGeometry y="330" width="300" height="30" as="geometry" />
        </mxCell>
        <mxCell id="rIfIayJdJzqMdmbzJrvQ-48" value="" style="shape=partialRectangle;html=1;whiteSpace=wrap;connectable=0;fillColor=none;top=0;left=0;bottom=0;right=0;overflow=hidden;" vertex="1" parent="rIfIayJdJzqMdmbzJrvQ-47">
          <mxGeometry width="36" height="30" as="geometry" />
        </mxCell>
        <mxCell id="rIfIayJdJzqMdmbzJrvQ-49" value="" style="shape=partialRectangle;html=1;whiteSpace=wrap;connectable=0;fillColor=none;top=0;left=0;bottom=0;right=0;align=left;spacingLeft=6;overflow=hidden;" vertex="1" parent="rIfIayJdJzqMdmbzJrvQ-47">
          <mxGeometry x="36" width="124" height="30" as="geometry" />
        </mxCell>
        <mxCell id="rIfIayJdJzqMdmbzJrvQ-50" value="" style="shape=partialRectangle;html=1;whiteSpace=wrap;connectable=0;fillColor=none;top=0;left=0;bottom=0;right=0;align=left;spacingLeft=6;overflow=hidden;" vertex="1" parent="rIfIayJdJzqMdmbzJrvQ-47">
          <mxGeometry x="160" width="140" height="30" as="geometry" />
        </mxCell>
        <mxCell id="rIfIayJdJzqMdmbzJrvQ-51" style="shape=partialRectangle;html=1;whiteSpace=wrap;collapsible=0;dropTarget=0;pointerEvents=0;fillColor=none;top=0;left=0;bottom=0;right=0;points=[[0,0.5],[1,0.5]];portConstraint=eastwest;" vertex="1" parent="rIfIayJdJzqMdmbzJrvQ-6">
          <mxGeometry y="360" width="300" height="30" as="geometry" />
        </mxCell>
        <mxCell id="rIfIayJdJzqMdmbzJrvQ-52" value="" style="shape=partialRectangle;html=1;whiteSpace=wrap;connectable=0;fillColor=none;top=0;left=0;bottom=0;right=0;overflow=hidden;" vertex="1" parent="rIfIayJdJzqMdmbzJrvQ-51">
          <mxGeometry width="36" height="30" as="geometry" />
        </mxCell>
        <mxCell id="rIfIayJdJzqMdmbzJrvQ-53" value="" style="shape=partialRectangle;html=1;whiteSpace=wrap;connectable=0;fillColor=none;top=0;left=0;bottom=0;right=0;align=left;spacingLeft=6;overflow=hidden;" vertex="1" parent="rIfIayJdJzqMdmbzJrvQ-51">
          <mxGeometry x="36" width="124" height="30" as="geometry" />
        </mxCell>
        <mxCell id="rIfIayJdJzqMdmbzJrvQ-54" value="" style="shape=partialRectangle;html=1;whiteSpace=wrap;connectable=0;fillColor=none;top=0;left=0;bottom=0;right=0;align=left;spacingLeft=6;overflow=hidden;" vertex="1" parent="rIfIayJdJzqMdmbzJrvQ-51">
          <mxGeometry x="160" width="140" height="30" as="geometry" />
        </mxCell>
      </root>
    </mxGraphModel>
  </diagram>
</mxfile>
